<svg id="Layer_1" data-name="Layer 1" xmlns="http://www.w3.org/2000/svg" viewBox="0 0 378.99 378.99"><defs><style>.cls-1{fill:#71bf44;}.cls-2{fill:#010101;}</style></defs><circle class="cls-1" cx="189.49" cy="189.49" r="189.49"/><path class="cls-2" d="M263.69,418.08a3.59,3.59,0,0,1-3.91.29c-29.88-16.46-62.17-8.06-69.18-6.71a3.14,3.14,0,0,1-.68.07,3.57,3.57,0,0,1-3.21-2c-.89-1.84.25-3.55,1.84-4.84,5.14-4.15,38.61-32.18,75.6,7.86A3.63,3.63,0,0,1,263.69,418.08Z" transform="translate(-108.61 -231.89)"/><path class="cls-2" d="M332.51,418.08a3.61,3.61,0,0,0,3.92.29c29.87-16.46,62.16-8.06,69.17-6.71a3.17,3.17,0,0,0,.69.07,3.56,3.56,0,0,0,3.2-2c.89-1.84-.24-3.55-1.84-4.84-5.14-4.15-38.61-32.18-75.6,7.86A3.64,3.64,0,0,0,332.51,418.08Z" transform="translate(-108.61 -231.89)"/><path class="cls-2" d="M231,484.3S241.89,533,298.1,533c55.73,0,67.11-48.65,67.11-48.65Z" transform="translate(-108.61 -231.89)"/></svg>