<svg xmlns="http://www.w3.org/2000/svg" xmlns:xlink="http://www.w3.org/1999/xlink" viewBox="0 0 1365.18 768"><defs><style>.cls-1{isolation:isolate;}.cls-2{fill:#f31f1e;}.cls-22,.cls-24,.cls-26,.cls-28,.cls-3,.cls-5,.cls-6{opacity:0.5;}.cls-3{fill:url(#linear-gradient);}.cls-4{fill:#7d7dfb;}.cls-5{fill:url(#linear-gradient-2);}.cls-6{fill:url(#linear-gradient-3);}.cls-7,.cls-8,.cls-9{fill:#d61e3e;}.cls-13,.cls-8,.cls-9{opacity:0.4;}.cls-13,.cls-14,.cls-8{mix-blend-mode:screen;}.cls-15,.cls-19,.cls-9{mix-blend-mode:multiply;}.cls-10{fill:#fff;}.cls-11{fill:#e0d1d1;}.cls-12,.cls-13,.cls-14,.cls-15{fill:#522017;}.cls-14{opacity:0.2;}.cls-15{opacity:0.1;}.cls-16{fill:#ffb335;}.cls-17{fill:#262653;}.cls-18,.cls-19{fill:#6a6ad5;}.cls-19{opacity:0.3;}.cls-20{fill:#f3f3f3;}.cls-20,.cls-21,.cls-23{fill-rule:evenodd;}.cls-21,.cls-23,.cls-25,.cls-27{opacity:0.7;}.cls-21{fill:url(#radial-gradient);}.cls-22{fill:url(#radial-gradient-2);}.cls-23{fill:url(#radial-gradient-3);}.cls-24{fill:url(#radial-gradient-4);}.cls-25{fill:url(#radial-gradient-5);}.cls-26{fill:url(#radial-gradient-6);}.cls-27{fill:url(#radial-gradient-7);}.cls-28{fill:url(#radial-gradient-8);}</style><linearGradient id="linear-gradient" x1="941.02" y1="606.62" x2="1075.98" y2="95.74" gradientTransform="matrix(-0.98, 0.2, 0.2, 0.98, 1341.34, -95.48)" gradientUnits="userSpaceOnUse"><stop offset="0" stop-color="#fff"/><stop offset="0.15" stop-color="#fff" stop-opacity="0.77"/><stop offset="0.32" stop-color="#fff" stop-opacity="0.54"/><stop offset="0.49" stop-color="#fff" stop-opacity="0.35"/><stop offset="0.64" stop-color="#fff" stop-opacity="0.2"/><stop offset="0.78" stop-color="#fff" stop-opacity="0.09"/><stop offset="0.91" stop-color="#fff" stop-opacity="0.02"/><stop offset="1" stop-color="#fff" stop-opacity="0"/></linearGradient><linearGradient id="linear-gradient-2" x1="700.53" y1="559.99" x2="791.33" y2="216.25" gradientTransform="matrix(-0.97, -0.22, -0.22, 0.97, 1486.21, 111.84)" xlink:href="#linear-gradient"/><linearGradient id="linear-gradient-3" x1="290.23" y1="806.32" x2="425.53" y2="294.1" gradientTransform="matrix(-0.68, -0.73, -0.73, 0.68, 1526.3, 319.13)" xlink:href="#linear-gradient"/><radialGradient id="radial-gradient" cx="441.03" cy="100.19" r="18.18" gradientTransform="translate(5.91) scale(1.05 1)" gradientUnits="userSpaceOnUse"><stop offset="0" stop-color="#fff"/><stop offset="0.14" stop-color="#fff" stop-opacity="0.88"/><stop offset="0.45" stop-color="#fff" stop-opacity="0.58"/><stop offset="0.9" stop-color="#fff" stop-opacity="0.11"/><stop offset="1" stop-color="#fff" stop-opacity="0"/></radialGradient><radialGradient id="radial-gradient-2" cx="441.03" cy="100.19" r="25.26" gradientTransform="translate(5.09) scale(1.05 1)" xlink:href="#radial-gradient"/><radialGradient id="radial-gradient-3" cx="941.67" cy="177.25" r="8.25" xlink:href="#radial-gradient"/><radialGradient id="radial-gradient-4" cx="941.67" cy="177.25" r="11.46" gradientTransform="translate(5.09) scale(1.05 1)" xlink:href="#radial-gradient"/><radialGradient id="radial-gradient-5" cx="224.06" cy="387.97" r="16.18" gradientTransform="translate(5.09) scale(1.05 1)" xlink:href="#radial-gradient"/><radialGradient id="radial-gradient-6" cx="224.06" cy="387.97" r="22.48" gradientTransform="translate(5.09) scale(1.05 1)" xlink:href="#radial-gradient"/><radialGradient id="radial-gradient-7" cx="988.53" cy="497.64" r="16.18" gradientTransform="translate(5.09) scale(1.05 1)" xlink:href="#radial-gradient"/><radialGradient id="radial-gradient-8" cx="988.53" cy="497.64" r="22.48" gradientTransform="translate(5.09) scale(1.05 1)" xlink:href="#radial-gradient"/></defs><g class="cls-1"><g id="Layer_1" data-name="Layer 1"><rect class="cls-2" width="1365.18" height="768"/><polygon class="cls-3" points="551.5 521.6 513.4 537.82 475.29 554.04 84.69 99.22 237.05 22.1 380.18 32 551.5 521.6"/><polygon class="cls-4" points="551.5 521.6 475.29 554.04 489.33 584.17 565.54 551.73 551.5 521.6"/><polygon class="cls-4" points="548.42 601.6 539.55 605.37 522.36 568.48 531.24 564.71 548.42 601.6"/><polygon class="cls-5" points="696.28 402.21 654.57 401.8 612.86 401.4 529.11 12.26 675.18 50 797.18 65 696.28 402.21"/><rect class="cls-4" x="613.5" y="401.8" width="83.43" height="32.99" transform="matrix(1, 0.01, -0.01, 1, 3.27, -6.34)"/><rect class="cls-4" x="649.98" y="433.3" width="9.71" height="40.38" transform="translate(3.63 -6.35) rotate(0.56)"/><polygon class="cls-6" points="823.04 537.7 788.73 515.03 754.42 492.35 973.18 18 1105.77 21.16 1250.18 111.02 823.04 537.7"/><polygon class="cls-4" points="823.04 537.7 754.42 492.35 734.8 519.48 803.42 564.84 823.04 537.7"/><polygon class="cls-4" points="749.97 576.79 741.98 571.51 766 538.29 773.99 543.58 749.97 576.79"/><path class="cls-7" d="M732.88,213.71l-165.26,20.9-38.83-9.53,38.62,318.37c5,7.8,14.74,13.93,29,17.73,18.09,4.83,43.46,5.89,75.73,1.81a314,314,0,0,0,44.22-8.48c30.51-8.47,49-20.88,57-37l35.78-299Z" transform="translate(-0.82)"/><path class="cls-8" d="M528.79,225.08l38.62,318.37c5,7.8,14.74,13.93,29,17.73L567.62,234.61Z" transform="translate(-0.82)"/><path class="cls-9" d="M732.88,213.71c6.53,113.71,11.83,230.89-16.56,340.8,30.51-8.47,49-20.88,57-37l35.78-299Z" transform="translate(-0.82)"/><path class="cls-10" d="M719.12,543.16q-1.35,5.69-2.8,11.35c30.51-8.47,49-20.88,57-37l1.7-14.19C767.26,519,748,534.72,719.12,543.16Z" transform="translate(-0.82)"/><path class="cls-10" d="M595.42,550.35c-13-3.62-24.14-11.28-29.42-18.57l1.41,11.67c5,7.8,14.74,13.93,29,17.73Z" transform="translate(-0.82)"/><path class="cls-10" d="M672.1,552.43c-32.85,4.16-58.54,3-76.68-2.08l1,10.83c18.09,4.83,43.46,5.89,75.73,1.81a314,314,0,0,0,44.22-8.48q1.45-5.65,2.8-11.35A304.25,304.25,0,0,1,672.1,552.43Z" transform="translate(-0.82)"/><path class="cls-10" d="M809.15,218.51c-18.48,28.56-63.41,44.58-140.83,46.4s-127.07-14.83-139.53-39.83c.36-23.81,63.41-44.58,140.83-46.39S809.51,194.71,809.15,218.51Z" transform="translate(-0.82)"/><path class="cls-11" d="M803.44,217.55C786.28,244.07,741.85,255.3,670,257s-119.58-8.94-131.14-32.14c.33-22.1,58.86-41.39,130.73-43.07S803.77,195.45,803.44,217.55Z" transform="translate(-0.82)"/><path class="cls-12" d="M795.11,227.34c-19.57-10-69.42-16.2-125-15.23-58,1-107.34,10-124.39,21.63C564.08,250.74,608,258.44,670,257,732.27,255.53,773.94,246.88,795.11,227.34Z" transform="translate(-0.82)"/><path class="cls-10" d="M642.19,225.87c-6.41-38.27-17.07-100.67-18.55-106.18l-.07-.25a3.4,3.4,0,0,0-.78-.26h-.85l-.44-.2L554,102.37a7.7,7.7,0,0,1-5.81-9.4A8.12,8.12,0,0,1,558,87.42l67,16.47c4.61.6,12,3.56,14.16,11.5h0c2.18,8.18,13.93,77.81,19,108C658.84,227.64,644.74,228.57,642.19,225.87Z" transform="translate(-0.82)"/><path class="cls-13" d="M697,228.07c-.55,4.92-6,5.88-12.21,5.24s-10.88-2.63-10.33-7.55,6-8.39,12.27-7.75S697.56,223.15,697,228.07Z" transform="translate(-0.82)"/><path class="cls-14" d="M689.84,224.12c.7,2.93-1.9.84-5,1.52s-5.58,3.87-6.28,1a5.49,5.49,0,0,1,4.4-6.52A5.74,5.74,0,0,1,689.84,224.12Z" transform="translate(-0.82)"/><path class="cls-13" d="M607.15,231.6c.12,4.94-5.14,6.57-11.39,6.7s-11.15-1.27-11.27-6.21,4.86-9.07,11.12-9.2S607,226.65,607.15,231.6Z" transform="translate(-0.82)"/><path class="cls-14" d="M599.51,228.57c1.08,2.81-1.78,1.06-4.78,2.12s-5,4.53-6.11,1.72a5.44,5.44,0,0,1,3.48-7A5.83,5.83,0,0,1,599.51,228.57Z" transform="translate(-0.82)"/><path class="cls-13" d="M724.93,242.65c.1,3.36-3.46,4.48-7.72,4.6s-7.58-.83-7.68-4.19,3.27-6.18,7.52-6.29S724.83,239.29,724.93,242.65Z" transform="translate(-0.82)"/><path class="cls-14" d="M719.73,240.62c.75,1.9-1.21.73-3.25,1.46s-3.39,3.09-4.14,1.19a3.69,3.69,0,0,1,2.34-4.78A4,4,0,0,1,719.73,240.62Z" transform="translate(-0.82)"/><path class="cls-13" d="M642.42,236.41c-.49,3.33-4.2,3.87-8.42,3.3s-7.33-2-6.84-5.36,4.31-5.57,8.52-5S642.91,233.08,642.42,236.41Z" transform="translate(-0.82)"/><path class="cls-14" d="M637.64,233.57c.41,2-1.31.53-3.45.92s-3.89,2.51-4.29.51a3.73,3.73,0,0,1,3.14-4.33A3.89,3.89,0,0,1,637.64,233.57Z" transform="translate(-0.82)"/><path class="cls-13" d="M758.18,226c.12,4.22-4.35,5.63-9.68,5.77s-9.51-1-9.63-5.25,4.1-7.75,9.43-7.89S758.05,221.78,758.18,226Z" transform="translate(-0.82)"/><path class="cls-14" d="M751.65,223.45c.94,2.39-1.51.91-4.07,1.83s-4.25,3.88-5.19,1.49a4.62,4.62,0,0,1,2.93-6A5,5,0,0,1,751.65,223.45Z" transform="translate(-0.82)"/><path class="cls-13" d="M671.19,244.79c.12,4.22-4.35,5.63-9.68,5.77s-9.51-1-9.63-5.25,4.1-7.75,9.43-7.89S671.06,240.58,671.19,244.79Z" transform="translate(-0.82)"/><path class="cls-14" d="M664.66,242.25c.94,2.39-1.51.91-4.07,1.83s-4.25,3.88-5.19,1.49a4.63,4.63,0,0,1,2.93-6A5,5,0,0,1,664.66,242.25Z" transform="translate(-0.82)"/><path class="cls-10" d="M736.89,295.3c-32.56,10-69.44,37.87-99.83,61.44-22,17.11-41.78,19.18-57.3,15.76-21.81-4.8-35.32-20.43-35.32-20.43s-.15.65-.37,1.88L555.53,447a51,51,0,0,0,33.33,28.82c27.92,8,65.69-3.11,97.66-27.45a114.94,114.94,0,0,1,49.34-21.54c17.72-3.25,36.44-.26,48.17,1.63l14.28-119.34C783.23,291.7,759.33,288.4,736.89,295.3Z" transform="translate(-0.82)"/><path class="cls-15" d="M798.31,309.14c-15.08-17.44-39-20.74-61.42-13.84h0c1.57,43.92,1.83,88-1,131.56h0c17.72-3.25,36.44-.26,48.17,1.63Z" transform="translate(-0.82)"/><path class="cls-10" d="M732.6,456.12a17.75,17.75,0,0,1-1.12,4.15c-3.93,9.57-15.56,14.43-25.57,10.67s-15.09-14.87-11.17-24.45a18.67,18.67,0,0,1,1.54-2.9l-28.41-9.81L627.3,547.24l30.29,11.35a17.69,17.69,0,0,1,1.2-8.77c3.93-9.57,15.56-14.43,25.57-10.67s15.09,14.87,11.17,24.44a18.66,18.66,0,0,1-5.36,7.22l165.25,62,48.24-117.6Z" transform="translate(-0.82)"/><path class="cls-11" d="M731.48,460.27c-3.93,9.57-15.56,14.43-25.57,10.67s-15.09-14.87-11.17-24.45a17.85,17.85,0,0,1,1.54-2.9l-27.21-9.39-8,110.53.79.08a20.53,20.53,0,0,1,22.47-5.66,19.25,19.25,0,0,1,8.11,5.77,17.41,17.41,0,0,1-.25-5.45c1.21-10.22,11.14-17.77,21.83-16.61s18.59,10.65,17.38,20.87a18,18,0,0,1-3.24,8.29l153.5,16.68,22-53.54-171.06-59A17.75,17.75,0,0,1,731.48,460.27Z" transform="translate(-0.82)"/><path class="cls-11" d="M732.32,457.47a16.93,16.93,0,0,1-.84,2.8c-3.93,9.57-15.56,14.43-25.57,10.67s-15.09-14.87-11.17-24.45a17.85,17.85,0,0,1,1.54-2.9l-20.17-7-7.44,103.15a20.51,20.51,0,0,1,15.69-.63,19.15,19.15,0,0,1,12.37,15.68l3.41.37a17.68,17.68,0,0,1-1.2-8.77c1.21-10.22,11.14-17.78,21.83-16.61s18.59,10.65,17.38,20.87a18,18,0,0,1-3.24,8.29l144.34,15.68,24.41-59.5L734.21,456.68A17.5,17.5,0,0,1,732.32,457.47Z" transform="translate(-0.82)"/><polygon class="cls-16" points="823.54 621.12 854.6 632.76 902.84 515.16 871.45 504.32 823.54 621.12"/><polygon class="cls-11" points="636.79 538.92 668.68 449.43 682.03 453.78 650.15 543.27 636.79 538.92"/><polygon class="cls-16" points="667.43 452.92 668.68 449.43 682.03 453.78 680.79 457.27 667.43 452.92"/><path class="cls-16" d="M640,532.14l2.35-6.61,13.36,4.35-2.35,6.6Zm3.53-9.91,2.35-6.6L659.27,520l-2.36,6.6Zm3.52-9.9,2.36-6.6,13.35,4.35-2.35,6.6Zm3.53-9.9,2.35-6.6,13.36,4.35-2.35,6.6Zm3.53-9.9,2.35-6.61,13.36,4.35-2.35,6.61Zm3.53-9.91L660,476l13.36,4.35L671,487Zm3.53-9.9,2.35-6.6,13.36,4.35-2.36,6.6Zm3.52-9.9,2.36-6.6,13.35,4.35-2.35,6.6Z" transform="translate(-0.82)"/><polygon class="cls-16" points="636.79 538.92 638.03 535.44 651.39 539.78 650.15 543.27 636.79 538.92"/><path class="cls-16" d="M701.76,480.92a2.68,2.68,0,0,1-1.66-3.35l.52-1.55a2.86,2.86,0,0,1,3.57-1.74,2.7,2.7,0,0,1,1.82,3.41l-.52,1.54a2.87,2.87,0,0,1-3.57,1.74Z" transform="translate(-0.82)"/><path class="cls-16" d="M686.62,525.72a2.68,2.68,0,0,1-1.66-3.35l1-3.06a2.85,2.85,0,0,1,3.56-1.74,2.7,2.7,0,0,1,1.82,3.41l-1,3a2.86,2.86,0,0,1-3.56,1.74Zm3.78-11.2a2.67,2.67,0,0,1-1.65-3.35l1-3.06a2.85,2.85,0,0,1,3.56-1.74,2.68,2.68,0,0,1,1.82,3.41l-1,3.05a2.85,2.85,0,0,1-3.56,1.74Zm3.79-11.2a2.68,2.68,0,0,1-1.66-3.35l1-3.06a2.85,2.85,0,0,1,3.56-1.74,2.7,2.7,0,0,1,1.82,3.41l-1,3.05a2.86,2.86,0,0,1-3.57,1.74Zm3.78-11.2a2.67,2.67,0,0,1-1.65-3.35l1-3.06a2.85,2.85,0,0,1,3.56-1.74,2.7,2.7,0,0,1,1.82,3.41l-1,3.05a2.85,2.85,0,0,1-3.56,1.74Z" transform="translate(-0.82)"/><path class="cls-16" d="M683.35,535.41a2.68,2.68,0,0,1-1.66-3.35l.52-1.55a2.86,2.86,0,0,1,3.56-1.74,2.69,2.69,0,0,1,1.83,3.41l-.53,1.54a2.85,2.85,0,0,1-3.56,1.74Z" transform="translate(-0.82)"/><path class="cls-16" d="M840.06,529.17l-97.94-36.72a1.21,1.21,0,0,1-.72-1.59,1.29,1.29,0,0,1,1.66-.69L841,526.88a1.21,1.21,0,0,1,.73,1.59A1.31,1.31,0,0,1,840.06,529.17Z" transform="translate(-0.82)"/><path class="cls-16" d="M834.05,543.82,736.11,507.1a.6.6,0,0,1-.36-.79.65.65,0,0,1,.83-.35l97.93,36.72a.6.6,0,0,1,.37.79A.65.65,0,0,1,834.05,543.82Z" transform="translate(-0.82)"/><path class="cls-16" d="M827.57,559.61,729.63,522.9a1.21,1.21,0,0,1-.72-1.59,1.29,1.29,0,0,1,1.66-.69l97.93,36.71a1.21,1.21,0,0,1,.73,1.59A1.3,1.3,0,0,1,827.57,559.61Z" transform="translate(-0.82)"/><path class="cls-16" d="M821.56,574.27l-97.94-36.72a.6.6,0,0,1-.36-.79.65.65,0,0,1,.83-.35L822,573.13a.6.6,0,0,1,.37.79A.65.65,0,0,1,821.56,574.27Z" transform="translate(-0.82)"/><path class="cls-10" d="M741.65,430.75a17.49,17.49,0,0,1,0,4.28c-1.22,10.22-11.15,17.78-21.84,16.62S701.26,441,702.48,430.77a17.85,17.85,0,0,1,.7-3.18l-30.1-2.48-8.62,119.62,32.32,3.51a17.68,17.68,0,0,1-1.2-8.77c1.21-10.22,11.14-17.77,21.83-16.61s18.59,10.65,17.38,20.87a18,18,0,0,1-3.24,8.29l176.37,19.16,14.92-125.51Z" transform="translate(-0.82)"/><polygon class="cls-16" points="873.96 567.58 907.1 571.18 922.02 445.67 888.78 442.93 873.96 567.58"/><polygon class="cls-11" points="671.36 534.15 678.05 439.83 692.13 440.75 685.44 535.06 671.36 534.15"/><polygon class="cls-16" points="677.79 443.5 678.05 439.83 692.13 440.75 691.87 444.42 677.79 443.5"/><path class="cls-16" d="M672.68,527l.5-7,14.08.91-.5,7Zm.75-10.44.49-7,14.08.92-.5,7Zm.74-10.44.49-6.95,14.08.91-.49,7Zm.74-10.43.49-7,14.08.91-.49,7Zm.74-10.44.49-7,14.08.92-.49,7Zm.74-10.44.49-6.95,14.08.91-.49,7Zm.74-10.43.49-7,14.08.91-.49,7Zm.74-10.44.49-7,14.08.91-.49,7Z" transform="translate(-0.82)"/><polygon class="cls-16" points="671.36 534.15 671.62 530.48 685.7 531.39 685.44 535.06 671.36 534.15"/><path class="cls-16" d="M718.53,462.31a2.75,2.75,0,0,1-2.5-2.83l.09-1.62a2.83,2.83,0,0,1,5.65.28l-.09,1.62a2.78,2.78,0,0,1-3,2.56Z" transform="translate(-0.82)"/><path class="cls-16" d="M716,509.32a2.74,2.74,0,0,1-2.51-2.82l.18-3.21a2.83,2.83,0,0,1,5.65.28l-.18,3.21a2.79,2.79,0,0,1-3,2.56Zm.63-11.75a2.74,2.74,0,0,1-2.5-2.83l.18-3.2a2.83,2.83,0,0,1,5.65.28l-.18,3.2a2.78,2.78,0,0,1-3,2.56Zm.64-11.76a2.74,2.74,0,0,1-2.5-2.82l.17-3.21a2.8,2.8,0,0,1,3-2.56,2.75,2.75,0,0,1,2.67,2.84l-.17,3.21a2.78,2.78,0,0,1-3,2.56Zm.64-11.75a2.74,2.74,0,0,1-2.5-2.83l.17-3.2a2.78,2.78,0,0,1,3-2.56,2.76,2.76,0,0,1,2.67,2.84l-.17,3.2a2.77,2.77,0,0,1-3,2.56Z" transform="translate(-0.82)"/><path class="cls-16" d="M715.42,519.49a2.74,2.74,0,0,1-2.5-2.83L713,515a2.79,2.79,0,0,1,3-2.56,2.76,2.76,0,0,1,2.68,2.85l-.09,1.62a2.79,2.79,0,0,1-3,2.56Z" transform="translate(-0.82)"/><path class="cls-16" d="M865.16,474.87,760.64,463.51a1.24,1.24,0,0,1-1.13-1.36,1.28,1.28,0,0,1,1.42-1.08l104.52,11.36a1.24,1.24,0,0,1,1.13,1.36A1.27,1.27,0,0,1,865.16,474.87Z" transform="translate(-0.82)"/><path class="cls-16" d="M863.3,490.51,758.78,479.15a.61.61,0,0,1-.56-.68.62.62,0,0,1,.7-.54l104.53,11.36a.62.62,0,0,1,.56.68A.63.63,0,0,1,863.3,490.51Z" transform="translate(-0.82)"/><path class="cls-16" d="M861.3,507.37,756.78,496a1.24,1.24,0,0,1-1.13-1.36,1.27,1.27,0,0,1,1.42-1.08l104.52,11.36a1.24,1.24,0,0,1,1.13,1.36A1.28,1.28,0,0,1,861.3,507.37Z" transform="translate(-0.82)"/><path class="cls-16" d="M859.44,523,754.92,511.65a.62.62,0,0,1-.57-.68.63.63,0,0,1,.71-.54l104.52,11.36a.61.61,0,0,1,.57.67A.63.63,0,0,1,859.44,523Z" transform="translate(-0.82)"/><path class="cls-17" d="M561.77,625.12s38.45,12.41,94.23,3.52c23.69-4.95,59.69-20.43,86.08.44,26.33,22.29,28.53,36,28.53,36s33.62-14.93,47.88-47.43c-11.83-13.4-38-27.24-67-32.84-31.69-5.6-57.09,12.31-85,13.6-21.4,1-35-15-35-15S576,629.08,561.77,625.12Z" transform="translate(-0.82)"/><path class="cls-10" d="M782.47,606.94c-10.81-5.71-20.82-10.72-20.82-10.72s-9.41,16-14.24,22.29c0,0,25.42,19.84,32.4,29.92a15,15,0,0,1,1.37,2.37,159.65,159.65,0,0,0,26.88-28.88C804.85,619.07,793.26,612.65,782.47,606.94Z" transform="translate(-0.82)"/><path class="cls-15" d="M728.44,593.61a42.29,42.29,0,0,1,15.64,18l8.61-17.37A70.84,70.84,0,0,0,728.44,593.61Z" transform="translate(-0.82)"/><path class="cls-15" d="M694.43,601.66a37.68,37.68,0,0,1,7.09,7.13l.63-8.83Z" transform="translate(-0.82)"/><path class="cls-15" d="M662.64,607.42a38.44,38.44,0,0,1-14.15.2A57,57,0,0,1,653,619.3c2.25-.52,3.48-.9,3.48-.9Z" transform="translate(-0.82)"/><polygon class="cls-10" points="665.5 607.86 662.28 616.43 700.65 609.62 700.71 608.79 701.34 599.96 693.61 601.66 665.5 607.86"/><path class="cls-10" d="M728.44,593.61A99.85,99.85,0,0,0,707,598.86l-.69,10.54c13.78-2.2,35.84,6.15,35.84,6.15l2-3.93,8.61-17.37A70.84,70.84,0,0,0,728.44,593.61Z" transform="translate(-0.82)"/><path class="cls-10" d="M648.49,607.62a44.89,44.89,0,0,1-20.08-9l-25.73,22.84A151.06,151.06,0,0,0,653,619.3c2.25-.52,3.48-.9,3.48-.9l6.2-11A38.44,38.44,0,0,1,648.49,607.62Z" transform="translate(-0.82)"/><path class="cls-10" d="M584.68,627c-2.64-.41-4.1-.71-4.16-.72l.86-3.87s1.44.29,4,.68Z" transform="translate(-0.82)"/><path class="cls-10" d="M769.65,651.77c-1.75-2.14-3.51-4.21-5.24-6.15l3.14-2.57c1.78,2,3.58,4.11,5.36,6.29Zm-10.79-12c-2-2-3.93-3.83-5.87-5.54l2.79-2.91c2,1.77,4.06,3.69,6.08,5.73Zm-142.5-10.41c-2.1,0-4.23,0-6.34-.09l.13-4c2.76.08,5.5.11,8.31.08l0,3.95Zm130.35-.21c-2.21-1.65-4.46-3.16-6.69-4.5l2.2-3.35c2.34,1.41,4.71,3,7,4.73ZM627,629.06l-.22-3.94c2.78-.14,5.57-.34,8.29-.59l.39,3.94C632.68,628.72,629.83,628.92,627,629.06Zm-25.44-.23c-2.83-.19-5.68-.44-8.45-.73l.46-3.93c2.72.29,5.5.53,8.28.71Zm42.33-1.32-.58-3.92c2.75-.37,5.5-.82,8.18-1.31l.78,3.88C649.52,626.67,646.7,627.12,643.88,627.51Zm16.69-3.1-1-3.84.46-.11c2.58-.62,5.13-1.26,7.64-1.89l1.06,3.82c-2.53.64-5.09,1.28-7.68,1.9Zm72.32-3.54a61.1,61.1,0,0,0-7.55-2.82l1.23-3.77a65.8,65.8,0,0,1,8.08,3Zm-56-.52-1-3.83c3.19-.79,5.8-1.4,8.21-1.92l.92,3.85C682.57,619,680,619.57,676.85,620.35Zm16.22-3.46-.69-3.9c3-.49,5.78-.84,8.49-1.07l.36,3.94C698.63,616.08,696,616.41,693.07,616.89Zm24.39-.6a62.26,62.26,0,0,0-8.08-.69l.1-4a67.21,67.21,0,0,1,8.63.75Z" transform="translate(-0.82)"/><path class="cls-10" d="M777.05,661.39c-.79-1.09-1.58-2.16-2.37-3.2l3.35-2.31c.8,1.06,1.61,2.14,2.41,3.25Z" transform="translate(-0.82)"/><path class="cls-10" d="M629.19,592.35a18.67,18.67,0,0,1-2.27-3.86l3.86-1.41-1.93.71,1.93-.71a15.58,15.58,0,0,0,1.8,3Z" transform="translate(-0.82)"/><path class="cls-10" d="M803.2,615.75c-2.24-1.71-4.49-3.36-6.68-4.9l2.46-3.18c2.23,1.57,4.52,3.25,6.8,5Zm-13.56-9.52c-2.39-1.52-4.78-3-7.1-4.25l2.09-3.41c2.39,1.33,4.84,2.81,7.3,4.37ZM660.74,606a55,55,0,0,1-8.81-.77l.73-3.89a51.12,51.12,0,0,0,8.12.71Zm8.74-.45-.47-3.93c2.62-.29,5.38-.73,8.19-1.31l.87,3.87C675.13,604.8,672.24,605.26,669.48,605.57Zm-26.13-2.68a34.92,34.92,0,0,1-7.83-4.28l2.52-3.14a30.63,30.63,0,0,0,6.89,3.77Zm43.11-.75-1.18-3.79c2.57-.73,5.25-1.58,8-2.53l1.42,3.72C691.87,600.51,689.11,601.38,686.46,602.14Zm88.72-4c-2.55-1.2-5.1-2.29-7.6-3.23l1.52-3.68c2.6,1,5.27,2.12,7.92,3.37Zm-72.56-1.33-1.33-3.75c3-1,5.63-1.78,8.17-2.51l1.19,3.79C708.15,595.08,705.53,595.89,702.62,596.84Zm57.11-4.46a81.39,81.39,0,0,0-8.07-1.74l.68-3.9a84.22,84.22,0,0,1,8.52,1.84Zm-41-.1-1-3.85c3-.68,5.75-1.21,8.5-1.62l.65,3.9C724.28,591.11,721.61,591.62,718.75,592.28Zm16.43-2.44-.25-4a82.11,82.11,0,0,1,8.73,0l-.21,3.95A78.77,78.77,0,0,0,735.18,589.84Z" transform="translate(-0.82)"/><path class="cls-10" d="M812.87,623.53c-1-.88-2.07-1.73-3.1-2.57l2.69-3q1.56,1.27,3.15,2.61Z" transform="translate(-0.82)"/><ellipse class="cls-17" cx="523.27" cy="491.59" rx="126.81" ry="121.23"/><path class="cls-4" d="M524.09,349.27c-82.22,0-148.86,63.72-148.86,142.32s66.64,142.32,148.86,142.32S673,570.19,673,491.59,606.31,349.27,524.09,349.27Zm46.3,62.65a27.77,27.77,0,0,1,38,0,24.9,24.9,0,0,1,0,36.34,27.75,27.75,0,0,1-38,0A24.9,24.9,0,0,1,570.39,411.92Zm-164.84,79c0-14.19,12-25.69,26.88-25.69s26.88,11.5,26.88,25.69-12,25.7-26.88,25.7S405.55,505.12,405.55,490.93Zm72.24,80.33a27.77,27.77,0,0,1-38,0,24.92,24.92,0,0,1,0-36.34,27.75,27.75,0,0,1,38,0A24.9,24.9,0,0,1,477.79,571.26Zm1-123.93a27.75,27.75,0,0,1-38,0,24.9,24.9,0,0,1,0-36.34,27.77,27.77,0,0,1,38,0A24.9,24.9,0,0,1,478.77,447.33ZM523.4,604.92c-14.84,0-26.88-11.51-26.88-25.7s12-25.69,26.88-25.69,26.88,11.5,26.88,25.69S538.25,604.92,523.4,604.92Zm1.38-175.26c-14.84,0-26.88-11.51-26.88-25.7s12-25.69,26.88-25.69,26.88,11.5,26.88,25.69S539.62,429.66,524.78,429.66Zm82.64,142.53a27.75,27.75,0,0,1-38,0,24.92,24.92,0,0,1,0-36.34,27.77,27.77,0,0,1,38,0A24.9,24.9,0,0,1,607.42,572.19ZM615.75,518c-14.84,0-26.88-11.51-26.88-25.7s12-25.7,26.88-25.7,26.88,11.51,26.88,25.7S630.6,518,615.75,518Z" transform="translate(-0.82)"/><path class="cls-18" d="M624,394.6a145.36,145.36,0,0,0-99.95-39.18c-78.66,0-142.43,61-142.43,136.17,0,58.69,38.84,108.71,93.29,127.84a147.79,147.79,0,0,0,49.14,8.33c78.66,0,142.43-61,142.43-136.17C666.52,453.62,650.26,419.29,624,394.6Zm-55.65,20.77a26.54,26.54,0,0,1,36.37,0,23.83,23.83,0,0,1,0,34.77,26.56,26.56,0,0,1-36.37,0A23.82,23.82,0,0,1,568.39,415.37Zm-43.64-32.21c14.2,0,25.72,11,25.72,24.59S539,432.33,524.75,432.33,499,421.33,499,407.75,510.55,383.16,524.75,383.16Zm-80.39,31.31a26.56,26.56,0,0,1,36.37,0,23.83,23.83,0,0,1,0,34.77,26.56,26.56,0,0,1-36.37,0A23.82,23.82,0,0,1,444.36,414.47ZM410.67,491c0-13.58,11.52-24.58,25.72-24.58s25.72,11,25.72,24.58-11.52,24.59-25.72,24.59S410.67,504.54,410.67,491Zm32.76,76.86a23.82,23.82,0,0,1,0-34.77,26.55,26.55,0,0,1,36.36,0,23.82,23.82,0,0,1,0,34.77A26.55,26.55,0,0,1,443.43,567.82Zm80,32.2a26.86,26.86,0,0,1-7-.94c-10.8-2.92-18.73-12.39-18.73-23.65,0-13.57,11.52-24.58,25.72-24.58,14,0,25.36,10.7,25.69,24,0,.19,0,.38,0,.57C549.15,589,537.63,600,523.43,600Zm80.39-31.31a26.56,26.56,0,0,1-36.37,0,24.66,24.66,0,0,1-5-6.88,23.78,23.78,0,0,1,5-27.89,26.48,26.48,0,0,1,23.64-6.63,26,26,0,0,1,12.73,6.63A23.82,23.82,0,0,1,603.82,568.71Zm8-51.9a26.39,26.39,0,0,1-12-2.84,24.43,24.43,0,0,1-13.75-21.75c0-13.58,11.51-24.58,25.71-24.58a26.68,26.68,0,0,1,8.72,1.47c9.91,3.42,17,12.46,17,23.11C637.51,505.8,626,516.81,611.79,516.81Z" transform="translate(-0.82)"/><path class="cls-19" d="M624,394.6c6,25,4,50.28-3.53,74.51,9.9,3.42,17,12.46,17,23.11,0,13.58-11.51,24.59-25.72,24.59a26.39,26.39,0,0,1-12-2.84q-4.14,6.79-8.74,13.34a26,26,0,0,1,12.73,6.63,23.82,23.82,0,0,1,0,34.77,26.56,26.56,0,0,1-36.37,0,24.66,24.66,0,0,1-5-6.88q-6.45,6.9-13.29,13c0,.19,0,.38,0,.57,0,13.58-11.52,24.59-25.72,24.59a26.86,26.86,0,0,1-7-.94A265.77,265.77,0,0,1,475,619.43a147.79,147.79,0,0,0,49.14,8.33c78.66,0,142.43-61,142.43-136.17C666.52,453.62,650.26,419.29,624,394.6Z" transform="translate(-0.82)"/><ellipse class="cls-10" cx="523.27" cy="491.59" rx="42.39" ry="40.52"/><path class="cls-15" d="M558.21,491.59c0,18-15.28,32.62-34.12,32.62S531,508.38,531,490.36,505.25,459,524.09,459,558.21,473.58,558.21,491.59Z" transform="translate(-0.82)"/><polygon class="cls-20" points="469.02 98.51 503.86 100.24 469.02 101.96 467.21 135.27 465.4 101.96 430.57 100.24 465.4 98.51 467.21 65.2 469.02 98.51"/><polygon class="cls-20" points="468.91 100.24 484.4 116.67 467.21 101.86 450.02 116.67 465.51 100.24 450.02 83.8 467.21 98.61 484.4 83.8 468.91 100.24"/><path class="cls-21" d="M486.26,100.19c0,10-8.52,18.18-19,18.18s-19-8.14-19-18.18S456.73,82,467.24,82,486.26,90.15,486.26,100.19Z" transform="translate(-0.82)"/><ellipse class="cls-22" cx="466.42" cy="100.19" rx="26.42" ry="25.26"/><polygon class="cls-20" points="991.28 176.48 1007.08 177.27 991.28 178.05 990.46 193.16 989.64 178.05 973.84 177.27 989.64 176.48 990.46 161.38 991.28 176.48"/><polygon class="cls-20" points="991.23 177.27 998.25 184.72 990.46 178 982.66 184.72 989.69 177.27 982.66 169.81 990.46 176.53 998.25 169.81 991.23 177.27"/><path class="cls-23" d="M999.54,177.25a8.63,8.63,0,1,1-8.62-8.25A8.44,8.44,0,0,1,999.54,177.25Z" transform="translate(-0.82)"/><ellipse class="cls-24" cx="990.1" cy="177.25" rx="11.98" ry="11.46"/><polygon class="cls-20" points="241.78 386.47 272.79 388.01 241.78 389.55 240.17 419.19 238.56 389.55 207.56 388.01 238.56 386.47 240.17 356.83 241.78 386.47"/><polygon class="cls-20" points="241.68 388.01 255.47 402.64 240.17 389.45 224.87 402.64 238.66 388.01 224.87 373.38 240.17 386.57 255.47 373.38 241.68 388.01"/><ellipse class="cls-25" cx="239.47" cy="387.97" rx="16.93" ry="16.18"/><ellipse class="cls-26" cx="239.47" cy="387.97" rx="23.52" ry="22.48"/><polygon class="cls-20" points="1041.43 496.14 1072.43 497.68 1041.43 499.22 1039.82 528.86 1038.21 499.22 1007.21 497.68 1038.21 496.14 1039.82 466.5 1041.43 496.14"/><polygon class="cls-20" points="1041.33 497.68 1055.12 512.31 1039.82 499.12 1024.52 512.31 1038.31 497.68 1024.52 483.06 1039.82 496.24 1055.12 483.06 1041.33 497.68"/><ellipse class="cls-27" cx="1039.12" cy="497.64" rx="16.93" ry="16.18"/><ellipse class="cls-28" cx="1039.12" cy="497.64" rx="23.52" ry="22.48"/></g></g></svg>