<svg width="149" height="69" viewBox="0 0 149 69" fill="none" xmlns="http://www.w3.org/2000/svg">
<path d="M66.3182 26.3814L73.766 26.834C73.4159 30.1251 72.2135 32.649 70.1588 34.4073C68.1041 36.1638 65.5791 37.0438 62.5855 37.0438C58.9819 37.0438 56.0713 35.8382 53.8558 33.4253C51.6402 31.0123 50.5315 27.6818 50.5315 23.4337C50.5315 19.2249 51.5818 15.8281 53.6807 13.2453C55.7796 10.6624 58.7095 9.37097 62.4688 9.37097C65.9823 9.37097 68.6806 10.3548 70.5673 12.3205C72.454 14.2863 73.5202 16.8978 73.766 20.1496L66.1626 20.5628C66.1626 18.767 65.8231 17.4684 65.1424 16.6688C64.4616 15.8693 63.6606 15.4686 62.7411 15.4686C60.1736 15.4686 58.8917 18.0783 58.8917 23.2977C58.8917 26.2222 59.2259 28.2077 59.8925 29.2576C60.5609 30.3058 61.4963 30.8317 62.7022 30.8317C64.8524 30.8281 66.0583 29.3453 66.3182 26.3814Z" fill="#F2F2F2"/>
<path d="M84.8882 9.78058V36.6288H76.7402V9.78058H84.8882Z" fill="#F2F2F2"/>
<path d="M112.207 36.6306H105.576L98.3073 24.768C97.3736 23.2476 96.4329 21.3981 95.4852 19.2231C95.9131 20.9545 96.127 22.423 96.127 23.6286V36.6306H89.5156V9.78058H97.2162L103.4 19.6148C104.63 21.568 105.564 23.287 106.201 24.768C105.785 22.4731 105.578 20.1264 105.578 17.7259V9.78058H112.209V36.6306H112.207Z" fill="#F2F2F2"/>
<path d="M136.804 30.2182V36.6306H116.835V9.78058H136.804V15.9766H124.826V19.8706H134.508V25.8305H124.826V30.2164H136.804V30.2182Z" fill="#F2F2F2"/>
<path d="M69.3597 58.0573L70.9865 58.9212C70.4542 59.9819 69.8354 60.8351 69.1369 61.4862C68.4385 62.1373 67.6534 62.6328 66.7799 62.9708C65.9046 63.3107 64.9161 63.4788 63.8145 63.4788C61.3673 63.4788 59.4559 62.6686 58.0766 61.0462C56.6974 59.4257 56.0078 57.5922 56.0078 55.5478C56.0078 53.6249 56.5913 51.9114 57.7601 50.4035C59.2401 48.4914 61.2205 47.5327 63.7031 47.5327C66.26 47.5327 68.3005 48.5129 69.8265 50.4733C70.9122 51.8577 71.4639 53.5856 71.4833 55.6587H57.9918C58.0289 57.4205 58.5859 58.864 59.6627 59.9909C60.7378 61.1178 62.0675 61.6812 63.6483 61.6812C64.4122 61.6812 65.1549 61.547 65.8763 61.2787C66.5995 61.0122 67.2131 60.6545 67.7188 60.2109C68.2245 59.7673 68.7726 59.0465 69.3597 58.0573ZM69.3597 53.9719C69.1015 52.9327 68.7284 52.0992 68.2351 51.4767C67.7418 50.8543 67.0928 50.3516 66.283 49.9724C65.4749 49.5897 64.6244 49.4 63.7314 49.4C62.2603 49.4 60.996 49.8794 59.9386 50.8364C59.1659 51.5322 58.5806 52.5785 58.1863 53.9719H69.3597Z" fill="#D22627"/>
<path d="M94.4738 47.9245V63.089H92.5712V60.4829C91.7631 61.4756 90.856 62.225 89.8499 62.7277C88.8438 63.2285 87.7439 63.4807 86.5486 63.4807C84.4267 63.4807 82.6143 62.7026 81.1131 61.1465C79.6118 59.5885 78.8604 57.6961 78.8604 55.4656C78.8604 53.2816 79.6189 51.416 81.1343 49.8634C82.6514 48.3108 84.4745 47.5363 86.6052 47.5363C87.8359 47.5363 88.9499 47.801 89.9471 48.3305C90.9444 48.8599 91.8179 49.6541 92.573 50.7148V47.9262H94.4738V47.9245ZM86.7643 49.4162C85.6892 49.4162 84.7008 49.6827 83.7902 50.2158C82.8813 50.7506 82.1599 51.5001 81.6223 52.4642C81.0865 53.43 80.8178 54.4514 80.8178 55.5282C80.8178 56.596 81.0901 57.6156 81.6312 58.5904C82.1722 59.5653 82.899 60.3255 83.8114 60.8674C84.7238 61.4112 85.7034 61.6813 86.7484 61.6813C87.804 61.6813 88.8049 61.413 89.7491 60.8728C90.6933 60.3344 91.4218 59.6064 91.9293 58.687C92.4403 57.7676 92.695 56.7338 92.695 55.5818C92.695 53.8271 92.1238 52.3604 90.9798 51.1817C89.8393 50.0047 88.4353 49.4162 86.7643 49.4162Z" fill="#D22627"/>
<path d="M110.811 49.5825L109.571 50.8793C108.538 49.8669 107.53 49.3607 106.546 49.3607C105.918 49.3607 105.382 49.5682 104.935 49.9867C104.489 50.4053 104.266 50.8936 104.266 51.4499C104.266 51.9436 104.45 52.4122 104.818 52.8576C105.186 53.3137 105.959 53.8467 107.136 54.4603C108.574 55.2133 109.548 55.9377 110.064 56.6353C110.572 57.3418 110.825 58.1342 110.825 59.0178C110.825 60.2628 110.391 61.3181 109.527 62.182C108.662 63.046 107.58 63.4788 106.284 63.4788C105.419 63.4788 104.592 63.2892 103.807 62.9064C103.02 62.5255 102.369 62.0014 101.854 61.3324L103.066 59.9372C104.051 61.0623 105.096 61.624 106.201 61.624C106.974 61.624 107.631 61.3735 108.176 60.8709C108.719 60.3701 108.991 59.7798 108.991 59.1001C108.991 58.542 108.811 58.0448 108.452 57.6083C108.093 57.1809 107.283 56.6407 106.022 55.9914C104.668 55.2866 103.746 54.589 103.26 53.9022C102.772 53.2135 102.528 52.4283 102.528 51.5465C102.528 50.3946 102.917 49.4376 103.695 48.6756C104.473 47.9136 105.455 47.5327 106.643 47.5327C108.024 47.5344 109.412 48.2159 110.811 49.5825Z" fill="#D22627"/>
<path d="M117.077 47.9244H119.116L124.269 59.6009L129.273 47.9244H131.326L122.382 68.6374H120.343L123.229 61.9406L117.077 47.9244Z" fill="#D22627"/>
<path d="M36.1258 39.3512C41.0397 35.2837 44.1748 29.102 44.1748 22.1798C44.1748 9.93081 34.3576 0 22.2488 0C10.14 0 0.322754 9.93081 0.322754 22.1798C0.322754 33.8259 9.19926 43.3775 20.4806 44.288C21.0641 44.3363 21.6529 44.3595 22.2488 44.3595H148.677V39.3512H36.1258ZM35.4044 17.8476C37.6996 17.8476 39.558 19.7293 39.558 22.051C39.558 24.3709 37.6996 26.2526 35.4044 26.2526C33.1092 26.2526 31.2508 24.3709 31.2508 22.051C31.2508 19.7293 33.1092 17.8476 35.4044 17.8476ZM22.4415 4.20163C24.7367 4.20163 26.5969 6.08334 26.5969 8.40506C26.5969 10.7268 24.7367 12.6067 22.4415 12.6067C20.1481 12.6067 18.2879 10.7268 18.2879 8.40506C18.2879 6.08334 20.1481 4.20163 22.4415 4.20163ZM24.3671 22.051C24.3671 23.126 23.5042 23.9971 22.4415 23.9971C21.3788 23.9971 20.5177 23.126 20.5177 22.051C20.5177 20.976 21.3788 20.1031 22.4415 20.1031C23.5042 20.1031 24.3671 20.976 24.3671 22.051ZM9.55467 26.2526C7.25951 26.2526 5.4011 24.3709 5.4011 22.051C5.4011 19.7293 7.25951 17.8476 9.55467 17.8476C11.8498 17.8476 13.71 19.7293 13.71 22.051C13.71 24.3709 11.8498 26.2526 9.55467 26.2526ZM18.2879 34.3196C18.2879 31.9997 20.1481 30.118 22.4415 30.118C24.7367 30.118 26.5969 31.9997 26.5969 34.3196C26.5969 36.6413 24.7367 38.523 22.4415 38.523C20.1481 38.523 18.2879 36.6413 18.2879 34.3196Z" fill="#F2F2F2"/>
<path d="M13.71 22.051C13.71 24.3709 11.8498 26.2526 9.55469 26.2526C7.25953 26.2526 5.40112 24.3709 5.40112 22.051C5.40112 19.7292 7.25953 17.8475 9.55469 17.8475C11.8498 17.8475 13.71 19.7292 13.71 22.051Z" fill="#CCC8C9"/>
<path d="M22.4417 23.9971C21.3789 23.9971 20.5178 23.126 20.5178 22.051C20.5178 20.976 21.3789 20.1031 22.4417 20.1031C23.5044 20.1031 24.3673 20.976 24.3673 22.051C24.3673 23.126 23.5044 23.9971 22.4417 23.9971Z" fill="#CCC8C9"/>
<path d="M26.597 34.3196C26.597 36.6413 24.7368 38.523 22.4417 38.523C20.1483 38.523 18.2881 36.6413 18.2881 34.3196C18.2881 31.9997 20.1483 30.118 22.4417 30.118C24.7368 30.118 26.597 31.9997 26.597 34.3196Z" fill="#CCC8C9"/>
<path d="M26.597 8.40502C26.597 10.7267 24.7368 12.6067 22.4417 12.6067C20.1483 12.6067 18.2881 10.7267 18.2881 8.40502C18.2881 6.0833 20.1483 4.2016 22.4417 4.2016C24.7368 4.2016 26.597 6.0833 26.597 8.40502Z" fill="#CCC8C9"/>
<path d="M39.5581 22.051C39.5581 24.3709 37.6997 26.2526 35.4045 26.2526C33.1094 26.2526 31.251 24.3709 31.251 22.051C31.251 19.7292 33.1094 17.8475 35.4045 17.8475C37.6997 17.8475 39.5581 19.7292 39.5581 22.051Z" fill="#CCC8C9"/>
<path d="M26.597 8.40502C26.597 10.7267 24.7368 12.6067 22.4417 12.6067C20.1483 12.6067 18.2881 10.7267 18.2881 8.40502C18.2881 6.0833 20.1483 4.2016 22.4417 4.2016C24.7368 4.2016 26.597 6.0833 26.597 8.40502Z" fill="#0C0B0C"/>
<path d="M39.5581 22.051C39.5581 24.3709 37.6997 26.2526 35.4045 26.2526C33.1094 26.2526 31.251 24.3709 31.251 22.051C31.251 19.7292 33.1094 17.8475 35.4045 17.8475C37.6997 17.8475 39.5581 19.7292 39.5581 22.051Z" fill="#0C0B0C"/>
<path d="M26.597 34.3196C26.597 36.6413 24.7368 38.523 22.4417 38.523C20.1483 38.523 18.2881 36.6413 18.2881 34.3196C18.2881 31.9997 20.1483 30.118 22.4417 30.118C24.7368 30.118 26.597 31.9997 26.597 34.3196Z" fill="#0C0B0C"/>
<path d="M13.71 22.051C13.71 24.3709 11.8498 26.2526 9.55469 26.2526C7.25953 26.2526 5.40112 24.3709 5.40112 22.051C5.40112 19.7292 7.25953 17.8475 9.55469 17.8475C11.8498 17.8475 13.71 19.7292 13.71 22.051Z" fill="#0C0B0C"/>
<path d="M24.3673 22.051C24.3673 23.126 23.5044 23.9971 22.4417 23.9971C21.3789 23.9971 20.5178 23.126 20.5178 22.051C20.5178 20.976 21.3789 20.1031 22.4417 20.1031C23.5044 20.1031 24.3673 20.976 24.3673 22.051Z" fill="#0C0B0C"/>
</svg>
