<svg width="107" height="86" viewBox="0 0 107 86" fill="none" xmlns="http://www.w3.org/2000/svg">
<path d="M22.2915 32.7875V25.0833C22.2915 21.1417 26.304 17.9167 31.2082 17.9167H75.7915C80.6957 17.9167 84.7082 21.1417 84.7082 25.0833V32.8233C79.5365 34.2925 75.7915 38.2342 75.7915 42.8925V50.1667H31.2082V42.8567C31.2082 38.2342 27.4632 34.2567 22.2915 32.7875ZM89.1665 35.8333C84.2623 35.8333 80.2498 39.0583 80.2498 43V53.75H26.7498V43C26.7498 41.0993 25.8104 39.2764 24.1382 37.9324C22.466 36.5884 20.198 35.8333 17.8332 35.8333C15.4683 35.8333 13.2003 36.5884 11.5281 37.9324C9.85594 39.2764 8.9165 41.0993 8.9165 43V60.9167C8.9165 64.8583 12.929 68.0833 17.8332 68.0833V75.25H26.7498V68.0833H80.2498V75.25H89.1665V68.0833C94.0707 68.0833 98.0832 64.8583 98.0832 60.9167V43C98.0832 39.0583 94.0707 35.8333 89.1665 35.8333Z" fill="black"/>
</svg>
